<svg width="24" height="24" viewBox="0 0 24 24" fill="none" xmlns="http://www.w3.org/2000/svg">
<path d="M13.0593 8.11023L14.4743 9.52523C15.1244 10.1753 15.64 10.947 15.9919 11.7963C16.3437 12.6456 16.5248 13.5559 16.5248 14.4752C16.5248 15.3945 16.3437 16.3049 15.9919 17.1542C15.64 18.0035 15.1244 18.7752 14.4743 19.4252L14.1203 19.7782C12.8075 21.0911 11.0269 21.8286 9.17028 21.8286C7.31367 21.8286 5.5331 21.0911 4.22028 19.7782C2.90746 18.4654 2.16992 16.6848 2.16992 14.8282C2.16992 12.9716 2.90746 11.1911 4.22028 9.87823L5.63528 11.2932C5.16765 11.7568 4.79618 12.3081 4.54221 12.9156C4.28823 13.5231 4.15675 14.1748 4.15531 14.8333C4.15387 15.4917 4.28249 16.144 4.53381 16.7526C4.78512 17.3612 5.15417 17.9142 5.61976 18.3798C6.08536 18.8453 6.63833 19.2144 7.24694 19.4657C7.85554 19.717 8.50779 19.8456 9.16624 19.8442C9.82469 19.8428 10.4764 19.7113 11.0839 19.4573C11.6914 19.2033 12.2427 18.8319 12.7063 18.3642L13.0603 18.0102C13.9976 17.0726 14.5242 15.8011 14.5242 14.4752C14.5242 13.1494 13.9976 11.8779 13.0603 10.9402L11.6453 9.52523L13.0603 8.11123L13.0593 8.11023ZM19.7773 14.1212L18.3633 12.7072C18.8309 12.2437 19.2024 11.6923 19.4564 11.0848C19.7103 10.4773 19.8418 9.82565 19.8433 9.1672C19.8447 8.50875 19.7161 7.8565 19.4648 7.24789C19.2134 6.63928 18.8444 6.08631 18.3788 5.62071C17.9132 5.15512 17.3602 4.78607 16.7516 4.53476C16.143 4.28345 15.4908 4.15482 14.8323 4.15626C14.1739 4.1577 13.5222 4.28919 12.9147 4.54316C12.3072 4.79714 11.7558 5.1686 11.2923 5.63623L10.9383 5.99023C10.0009 6.92787 9.47435 8.19941 9.47435 9.52523C9.47435 10.8511 10.0009 12.1226 10.9383 13.0602L12.3533 14.4752L10.9383 15.8892L9.52428 14.4752C8.87419 13.8252 8.35851 13.0535 8.00669 12.2042C7.65486 11.3549 7.47377 10.4445 7.47377 9.52523C7.47377 8.60592 7.65486 7.69561 8.00669 6.84628C8.35851 5.99696 8.87419 5.22525 9.52428 4.57523L9.87828 4.22223C11.1911 2.90941 12.9717 2.17188 14.8283 2.17188C16.6849 2.17188 18.4655 2.90941 19.7783 4.22223C21.0911 5.53505 21.8286 7.31562 21.8286 9.17223C21.8286 11.0288 21.0911 12.8094 19.7783 14.1222L19.7773 14.1212Z" fill="#F5F5F5"/>
</svg>
