<svg width="24" height="24" viewBox="0 0 24 24" fill="none" xmlns="http://www.w3.org/2000/svg">
<path d="M17.5473 16.4999V20.9998H15.7474V16.4999C15.7474 12.494 18.1269 9.04344 21.5496 7.48556L22.2948 9.12354C20.8789 9.76755 19.6782 10.8056 18.8364 12.1136C17.9945 13.4216 17.547 14.9443 17.5473 16.4999V16.4999ZM8.54744 16.4999V20.9998H6.74745V16.4999C6.74759 14.9445 6.3 13.422 5.45816 12.1141C4.61632 10.8063 3.4158 9.76839 2 9.12444L2.74519 7.48556C4.47559 8.27259 5.94286 9.5411 6.97175 11.1396C8.00064 12.738 8.54764 14.5989 8.54744 16.4999ZM12.1474 11.9999C10.9539 11.9999 9.80936 11.5258 8.96545 10.6819C8.12155 9.838 7.64744 8.69342 7.64744 7.49996C7.64744 6.30649 8.12155 5.16191 8.96545 4.31801C9.80936 3.4741 10.9539 3 12.1474 3C13.3409 3 14.4854 3.4741 15.3293 4.31801C16.1733 5.16191 16.6474 6.30649 16.6474 7.49996C16.6474 8.69342 16.1733 9.838 15.3293 10.6819C14.4854 11.5258 13.3409 11.9999 12.1474 11.9999V11.9999ZM12.1474 10.1999C12.502 10.1999 12.8531 10.1301 13.1806 9.99441C13.5082 9.85872 13.8059 9.65984 14.0566 9.40912C14.3073 9.15841 14.5062 8.86077 14.6418 8.53319C14.7775 8.20561 14.8474 7.85452 14.8474 7.49996C14.8474 7.14539 14.7775 6.7943 14.6418 6.46672C14.5062 6.13914 14.3073 5.8415 14.0566 5.59079C13.8059 5.34007 13.5082 5.14119 13.1806 5.00551C12.8531 4.86982 12.502 4.79998 12.1474 4.79998C11.4313 4.79998 10.7446 5.08444 10.2382 5.59079C9.73189 6.09713 9.44743 6.78388 9.44743 7.49996C9.44743 8.21603 9.73189 8.90278 10.2382 9.40912C10.7446 9.91547 11.4313 10.1999 12.1474 10.1999V10.1999Z" fill="#F5F5F5"/>
</svg>
