<svg width="16" height="16" viewBox="0 0 16 16" fill="none" xmlns="http://www.w3.org/2000/svg">
<path d="M10 2.66683H3.33333V13.3335H12.6667V5.3335H10V2.66683ZM2 1.99483C2 1.6295 2.298 1.3335 2.666 1.3335H10.6667L14 4.66683V13.9955C14.0006 14.083 13.984 14.1699 13.951 14.251C13.9181 14.3321 13.8695 14.4059 13.808 14.4683C13.7466 14.5306 13.6734 14.5802 13.5928 14.6143C13.5121 14.6484 13.4255 14.6662 13.338 14.6668H2.662C2.48692 14.6656 2.31934 14.5956 2.19548 14.4718C2.07161 14.3481 2.0014 14.1806 2 14.0055V1.99483ZM7.33333 7.3335H8.66667V11.3335H7.33333V7.3335ZM7.33333 4.66683H8.66667V6.00016H7.33333V4.66683Z" fill="#FABD2E"/>
</svg>
