<svg width="24" height="24" viewBox="0 0 24 24" fill="none" xmlns="http://www.w3.org/2000/svg">
<path d="M11.0909 21.1818C6.07 21.1818 2 17.1118 2 12.0909C2 7.07 6.07 3 11.0909 3C12.5024 2.99894 13.8947 3.32707 15.1572 3.95831C16.4197 4.58956 17.5176 5.50653 18.3636 6.63637H15.9C14.8502 5.71069 13.5556 5.1076 12.1716 4.89946C10.7875 4.69131 9.37279 4.88696 8.09717 5.46292C6.82155 6.03889 5.73923 6.97069 4.98006 8.14654C4.2209 9.32238 3.81715 10.6923 3.81727 12.0919C3.81739 13.4915 4.22136 14.8614 4.98072 16.0371C5.74008 17.2128 6.82256 18.1445 8.09827 18.7202C9.37399 19.2959 10.7887 19.4914 12.1728 19.283C13.5568 19.0746 14.8513 18.4713 15.9009 17.5455H18.3645C17.5184 18.6754 16.4204 19.5925 15.1577 20.2237C13.8951 20.855 12.5026 21.183 11.0909 21.1818V21.1818ZM17.4545 15.7273V13H10.1818V11.1818H17.4545V8.45455L22 12.0909L17.4545 15.7273Z" fill="#F5F5F5"/>
</svg>
