<svg width="24" height="24" viewBox="0 0 24 24" fill="none" xmlns="http://www.w3.org/2000/svg">
<path d="M6.81857 14.1429L3 17.1429V3.85714C3 3.62981 3.09031 3.4118 3.25105 3.25105C3.4118 3.09031 3.62981 3 3.85714 3H16.7143C16.9416 3 17.1596 3.09031 17.3204 3.25105C17.4811 3.4118 17.5714 3.62981 17.5714 3.85714V14.1429H6.81857ZM6.22543 12.4286H15.8571V4.71429H4.71429V13.6157L6.22543 12.4286ZM9 15.8571H17.7746L19.2857 17.0443V8.14286H20.1429C20.3702 8.14286 20.5882 8.23316 20.7489 8.39391C20.9097 8.55465 21 8.77267 21 9V20.5714L17.1814 17.5714H9.85714C9.62981 17.5714 9.4118 17.4811 9.25105 17.3204C9.09031 17.1596 9 16.9416 9 16.7143V15.8571Z" fill="#FFDA85"/>
</svg>
