<svg width="24" height="24" viewBox="0 0 24 24" fill="none" xmlns="http://www.w3.org/2000/svg">
<path d="M12.0009 2C12.2661 2 12.5205 2.10536 12.708 2.29289C12.8956 2.48043 13.0009 2.73478 13.0009 3V6C13.0009 6.26522 12.8956 6.51957 12.708 6.70711C12.5205 6.89464 12.2661 7 12.0009 7C11.7357 7 11.4813 6.89464 11.2938 6.70711C11.1063 6.51957 11.0009 6.26522 11.0009 6V3C11.0009 2.73478 11.1063 2.48043 11.2938 2.29289C11.4813 2.10536 11.7357 2 12.0009 2ZM12.0009 17C12.2661 17 12.5205 17.1054 12.708 17.2929C12.8956 17.4804 13.0009 17.7348 13.0009 18V21C13.0009 21.2652 12.8956 21.5196 12.708 21.7071C12.5205 21.8946 12.2661 22 12.0009 22C11.7357 22 11.4813 21.8946 11.2938 21.7071C11.1063 21.5196 11.0009 21.2652 11.0009 21V18C11.0009 17.7348 11.1063 17.4804 11.2938 17.2929C11.4813 17.1054 11.7357 17 12.0009 17ZM20.6609 7C20.7935 7.22968 20.8295 7.50263 20.7608 7.7588C20.6922 8.01497 20.5246 8.23339 20.2949 8.366L17.6969 9.866C17.5831 9.9327 17.4573 9.97623 17.3266 9.9941C17.196 10.012 17.0631 10.0038 16.9356 9.9701C16.8081 9.93639 16.6885 9.8778 16.5837 9.79769C16.479 9.71758 16.3911 9.61754 16.3252 9.50333C16.2592 9.38912 16.2165 9.26299 16.1995 9.13221C16.1825 9.00143 16.1916 8.86858 16.2261 8.74131C16.2607 8.61403 16.32 8.49485 16.4008 8.39063C16.4817 8.2864 16.5823 8.19918 16.6969 8.134L19.2949 6.634C19.5246 6.5014 19.7975 6.46546 20.0537 6.5341C20.3099 6.60274 20.5283 6.77033 20.6609 7ZM7.67092 14.5C7.80352 14.7297 7.83945 15.0026 7.77082 15.2588C7.70218 15.515 7.53459 15.7334 7.30492 15.866L4.70692 17.366C4.59315 17.4327 4.46731 17.4762 4.33664 17.4941C4.20598 17.512 4.07307 17.5038 3.94557 17.4701C3.81807 17.4364 3.6985 17.3778 3.59374 17.2977C3.48898 17.2176 3.40109 17.1175 3.33515 17.0033C3.26921 16.8891 3.22651 16.763 3.20951 16.6322C3.19251 16.5014 3.20155 16.3686 3.23611 16.2413C3.27066 16.114 3.33005 15.9949 3.41085 15.8906C3.49165 15.7864 3.59227 15.6992 3.70692 15.634L6.30492 14.134C6.5346 14.0014 6.80754 13.9655 7.06371 14.0341C7.31989 14.1027 7.5383 14.2703 7.67092 14.5ZM20.6609 17C20.5283 17.2297 20.3099 17.3973 20.0537 17.4659C19.7975 17.5345 19.5246 17.4986 19.2949 17.366L16.6969 15.866C16.4691 15.7324 16.3034 15.5142 16.2359 15.2589C16.1684 15.0036 16.2046 14.732 16.3366 14.5033C16.4687 14.2746 16.6858 14.1074 16.9407 14.0383C17.1955 13.9691 17.4674 14.0035 17.6969 14.134L20.2949 15.634C20.5246 15.7666 20.6922 15.985 20.7608 16.2412C20.8295 16.4974 20.7935 16.7703 20.6609 17ZM7.67092 9.5C7.5383 9.72967 7.31989 9.89726 7.06371 9.9659C6.80754 10.0345 6.5346 9.9986 6.30492 9.866L3.70692 8.366C3.59227 8.30082 3.49165 8.2136 3.41085 8.10937C3.33005 8.00515 3.27066 7.88597 3.23611 7.75869C3.20155 7.63142 3.19251 7.49857 3.20951 7.36779C3.22651 7.23701 3.26921 7.11088 3.33515 6.99667C3.40109 6.88246 3.48898 6.78242 3.59374 6.70231C3.6985 6.62221 3.81807 6.56361 3.94557 6.5299C4.07307 6.49619 4.20598 6.48804 4.33664 6.5059C4.46731 6.52377 4.59315 6.5673 4.70692 6.634L7.30492 8.134C7.53459 8.26661 7.70218 8.48503 7.77082 8.7412C7.83945 8.99737 7.80352 9.27032 7.67092 9.5Z" fill="#B6B3AC"/>
</svg>
