<svg width="16" height="16" viewBox="0 0 16 16" fill="none" xmlns="http://www.w3.org/2000/svg">
<path d="M1.33398 13.3335H14.6673V14.6668H1.33398V13.3335ZM2.66732 8.00016H4.00065V12.6668H2.66732V8.00016ZM6.00065 8.00016H7.33398V12.6668H6.00065V8.00016ZM8.66732 8.00016H10.0007V12.6668H8.66732V8.00016ZM12.0007 8.00016H13.334V12.6668H12.0007V8.00016ZM1.33398 4.66683L8.00065 1.3335L14.6673 4.66683V7.3335H1.33398V4.66683ZM2.66732 5.49083V6.00016H13.334V5.49083L8.00065 2.82416L2.66732 5.49083ZM8.00065 5.3335C7.82384 5.3335 7.65427 5.26326 7.52925 5.13823C7.40422 5.01321 7.33398 4.84364 7.33398 4.66683C7.33398 4.49002 7.40422 4.32045 7.52925 4.19542C7.65427 4.0704 7.82384 4.00016 8.00065 4.00016C8.17746 4.00016 8.34703 4.0704 8.47206 4.19542C8.59708 4.32045 8.66732 4.49002 8.66732 4.66683C8.66732 4.84364 8.59708 5.01321 8.47206 5.13823C8.34703 5.26326 8.17746 5.3335 8.00065 5.3335Z" fill="#FABD2E"/>
</svg>
