<svg width="24" height="24" viewBox="0 0 24 24" fill="none" xmlns="http://www.w3.org/2000/svg">
<path fill-rule="evenodd" clip-rule="evenodd" d="M22 12C22 17.5228 17.5228 22 12 22C6.47715 22 2 17.5228 2 12C2 6.47715 6.47715 2 12 2C17.5228 2 22 6.47715 22 12ZM15.7926 8.20736C16.0691 8.48384 16.0691 8.93209 15.7926 9.20857L13.0012 12L15.7926 14.7914C16.0691 15.0679 16.0691 15.5162 15.7926 15.7926C15.5162 16.0691 15.0679 16.0691 14.7914 15.7926L12 13.0012L9.20857 15.7926C8.93209 16.0691 8.48384 16.0691 8.20736 15.7926C7.93088 15.5162 7.93088 15.0679 8.20736 14.7914L10.9988 12L8.20736 9.20857C7.93088 8.93209 7.93088 8.48384 8.20736 8.20736C8.48384 7.93088 8.93209 7.93088 9.20857 8.20736L12 10.9988L14.7914 8.20736C15.0679 7.93088 15.5162 7.93088 15.7926 8.20736Z" fill="#E8E7E5"/>
</svg>
