<svg fill="none" xmlns="http://www.w3.org/2000/svg" viewBox="0 0 24 24">
  <path d="M21.75 12A9.76 9.76 0 0 0 12 2.25a9.75 9.75 0 0 0 0 19.5A9.76 9.76 0 0 0 21.75 12Zm-1.538-.75h-3.73c-.15-2.775-1.126-5.344-2.766-7.322a8.268 8.268 0 0 1 6.496 7.322Zm-11.184 1.5h5.944c-.169 2.7-1.247 5.222-2.972 6.975-1.725-1.753-2.803-4.275-2.972-6.975Zm0-1.5c.169-2.7 1.247-5.222 2.972-6.975 1.725 1.753 2.803 4.275 2.972 6.975H9.028Zm1.256-7.322C8.644 5.906 7.67 8.475 7.52 11.25H3.787a8.269 8.269 0 0 1 6.497-7.322ZM3.787 12.75H7.52c.15 2.775 1.125 5.344 2.765 7.322a8.27 8.27 0 0 1-6.497-7.322Zm9.929 7.322c1.64-1.978 2.615-4.547 2.765-7.322h3.731a8.268 8.268 0 0 1-6.496 7.322Z" fill="#E8E7E5"/>
</svg>
