<svg fill="none" xmlns="http://www.w3.org/2000/svg" viewBox="0 0 24 24">
  <g clip-path="url(#a)">
    <path fill-rule="evenodd" clip-rule="evenodd" d="M22.5 3A1.5 1.5 0 0 0 21 1.5H3A1.5 1.5 0 0 0 1.5 3v18A1.5 1.5 0 0 0 3 22.5h18a1.5 1.5 0 0 0 1.5-1.5V3ZM0 3a3 3 0 0 1 3-3h18a3 3 0 0 1 3 3v18a3 3 0 0 1-3 3H3a3 3 0 0 1-3-3V3Zm12.75 3.75a.75.75 0 1 0-1.5 0v8.69l-3.219-3.221a.751.751 0 0 0-1.062 1.062l4.5 4.5a.751.751 0 0 0 1.062 0l4.5-4.5a.75.75 0 0 0-1.062-1.062l-3.219 3.22V6.75Z" fill="#E8E7E5"/>
  </g>
  <defs>
    <clipPath id="a">
      <path fill="#fff" d="M0 0h24v24H0z"/>
    </clipPath>
  </defs>
</svg>
